<svg xmlns="http://www.w3.org/2000/svg" viewBox="0 0 300 360">
  <defs>
    <radialGradient id="gSkin" cx="45%" cy="38%" r="75%">
      <stop offset="0%" stop-color="#eecdae"/>
      <stop offset="78%" stop-color="#dcab86"/>
      <stop offset="100%" stop-color="#bd8660"/>
    </radialGradient>
    <linearGradient id="gHair" x1="0" y1="0" x2="0.3" y2="1">
      <stop offset="0%" stop-color="#b85a38"/>
      <stop offset="100%" stop-color="#8f4226"/>
    </linearGradient>
    <linearGradient id="gCloth" x1="0" y1="0" x2="0" y2="1">
      <stop offset="0%" stop-color="#6d7a94"/>
      <stop offset="100%" stop-color="#4c5870"/>
    </linearGradient>
    <linearGradient id="gRim" x1="0" y1="0" x2="1" y2="0">
      <stop offset="70%" stop-color="#ffffff" stop-opacity="0"/>
      <stop offset="100%" stop-color="#ffe9b8" stop-opacity="0.35"/>
    </linearGradient>
  </defs>
  
  <path d="M 44 360 C 48 292 84 258 118 248 L 150 262 L 182 248 C 216 258 252 292 256 360 Z" fill="url(#gCloth)"/>
  <path d="M 108 252 L 150 268 L 192 252 L 192 360 L 108 360 Z" fill="#e2d6bd"/><path d="M 118 248 L 150 262 L 182 248 L 178 262 L 150 272 L 122 262 Z" fill="#b3907a"/>
  <path d="M 44 360 C 48 292 84 258 118 248 L 150 262 L 182 248 C 216 258 252 292 256 360 Z" fill="url(#gRim)"/>
  
  <path d="M 128 196 L 128 252 C 128 262 172 262 172 252 L 172 196 Z" fill="url(#gSkin)"/>
  <path d="M 128 196 L 128 216 C 140 226 160 226 172 216 L 172 196 Z" fill="#00000022"/>
  
  <path d="M 88.0 148 C 88.0 96 105.36 66 150 66 C 194.64 66 212.0 96 212.0 148 C 212.0 182 188.44 212 150 214 C 111.56 212 88.0 182 88.0 148 Z" fill="url(#gSkin)"/>
  <ellipse cx="86.0" cy="150" rx="9" ry="14" fill="url(#gSkin)"/>
  <ellipse cx="214.0" cy="150" rx="9" ry="14" fill="url(#gSkin)"/>
  
  <g>
    <path d="M 108 148 Q 121 141 134 148 Q 121 157 108 148 Z" fill="#fdf8f0"/>
    <path d="M 166 148 Q 179 141 192 148 Q 179 157 166 148 Z" fill="#fdf8f0"/>
    <circle cx="121" cy="148" r="6.2" fill="#5a6a4a"/>
    <circle cx="179" cy="148" r="6.2" fill="#5a6a4a"/>
    <circle cx="121" cy="148" r="2.6" fill="#1c140e"/>
    <circle cx="179" cy="148" r="2.6" fill="#1c140e"/>
    <circle cx="123.5" cy="145.5" r="1.6" fill="#ffffff" opacity="0.9"/>
    <circle cx="181.5" cy="145.5" r="1.6" fill="#ffffff" opacity="0.9"/>
    <path d="M 106 143 Q 121 136 136 143" stroke="#3a2c22" stroke-width="2.4" fill="none" stroke-linecap="round"/><path d="M 164 143 Q 179 136 194 143" stroke="#3a2c22" stroke-width="2.4" fill="none" stroke-linecap="round"/><path d="M 112 160 Q 121 164 132 161" stroke="#00000022" stroke-width="2" fill="none"/><path d="M 168 161 Q 179 164 188 160" stroke="#00000022" stroke-width="2" fill="none"/>
  </g>
  <path d="M 106 130 Q 121 125 136 130" stroke="#7a6a52" stroke-width="4.6" fill="none" stroke-linecap="round"/><path d="M 164 130 Q 179 125 194 130" stroke="#7a6a52" stroke-width="4.6" fill="none" stroke-linecap="round"/>
  
  <path d="M 150 158 Q 146 172 143 178 Q 149 182 155 179" stroke="#00000026" stroke-width="2.4" fill="none" stroke-linecap="round"/>
  <path d="M 138 198 Q 150 196 162 198" stroke="#8a5a48" stroke-width="3.4" fill="none" stroke-linecap="round"/>
  <path d="M 118 182 Q 114 190 116 197" stroke="#00000018" stroke-width="2" fill="none"/><path d="M 182 182 Q 186 190 184 197" stroke="#00000018" stroke-width="2" fill="none"/><path d="M 112 118 Q 150 112 188 118" stroke="#00000015" stroke-width="2" fill="none"/><path d="M 116 108 Q 150 102 184 108" stroke="#00000012" stroke-width="2" fill="none"/>
  <path d="M 84 150 C 78 84 108 56 150 54 C 192 56 222 84 216 150 L 208 150 C 212 100 190 74 150 72 C 110 74 88 100 92 150 Z" fill="#a34d2e"/>
  <path d="M 86 152 C 80 90 110 58 150 56 C 190 58 220 90 214 152 C 218 170 214 186 206 196 L 200 188 C 206 176 208 162 206 148 C 208 104 186 76 150 74 C 114 76 92 104 94 148 C 92 162 94 176 100 188 L 94 196 C 86 186 82 170 86 152 Z" fill="#b85a38"/>
  <path d="M 196 92 C 212 112 216 150 208 186" stroke="#ffe9b8" stroke-width="5" fill="none" opacity="0.35" stroke-linecap="round"/></svg>